HIERARCHY
ROOT hip
{
  OFFSET 0 0 0
  CHANNELS 6 Xposition Yposition Zposition Zrotation Yrotation Xrotation
  JOINT abdomen
  {
    OFFSET 0 20.6881 -0.73152
    CHANNELS 3 Zrotation Xrotation Yrotation
    JOINT chest
    {
      OFFSET 0 11.7043 -0.48768
      CHANNELS 3 Zrotation Xrotation Yrotation
      JOINT neck
      {
        OFFSET 0 22.1894 -2.19456
        CHANNELS 3 Zrotation Xrotation Yrotation
        JOINT head
        {
          OFFSET -0.24384 7.07133 1.2192
          CHANNELS 3 Zrotation Xrotation Yrotation
          JOINT leftEye
          {
            OFFSET 4.14528 8.04674 8.04672
            CHANNELS 3 Zrotation Xrotation Yrotation
            End Site
            {
              OFFSET 1 0 0
            }
          }
          JOINT rightEye
          {
            OFFSET -3.6576 8.04674 8.04672
            CHANNELS 3 Zrotation Xrotation Yrotation
            End Site
            {
              OFFSET 1 0 0
            }
          }
        }
      }
      JOINT rCollar
      {
        OFFSET -2.68224 19.2634 -4.8768
        CHANNELS 3 Zrotation Xrotation Yrotation
        JOINT rShldr
        {
          OFFSET -8.77824 -1.95073 1.46304
          CHANNELS 3 Zrotation Xrotation Yrotation
          JOINT rForeArm
          {
            OFFSET -28.1742 -1.7115 0.48768
            CHANNELS 3 Zrotation Xrotation Yrotation
            JOINT rHand
            {
              OFFSET -22.5879 0.773209 7.07136
              CHANNELS 3 Zrotation Xrotation Yrotation
              JOINT rThumb1
              {
                OFFSET -1.2192 -0.487915 3.41376
                CHANNELS 3 Zrotation Xrotation Yrotation
                JOINT rThumb2
                {
                  OFFSET -3.37035 -0.52449 3.41376
                  CHANNELS 3 Zrotation Xrotation Yrotation
                  End Site
                  {
                    OFFSET -1.78271 -1.18214 1.43049
                  }
                }
              }
              JOINT rIndex1
              {
                OFFSET -7.75947 0.938293 5.60832
                CHANNELS 3 Zrotation Xrotation Yrotation
                JOINT rIndex2
                {
                  OFFSET -2.54057 -0.884171 1.56538
                  CHANNELS 3 Zrotation Xrotation Yrotation
                  End Site
                  {
                    OFFSET -1.62519 -0.234802 1.16502
                  }
                }
              }
              JOINT rMid1
              {
                OFFSET -8.24714 1.18213 3.41376
                CHANNELS 3 Zrotation Xrotation Yrotation
                JOINT rMid2
                {
                  OFFSET -3.10165 -0.590103 1.0647
                  CHANNELS 3 Zrotation Xrotation Yrotation
                  End Site
                  {
                    OFFSET -2.48547 -0.328903 0.83742
                  }
                }
              }
              JOINT rRing1
              {
                OFFSET -8.82822 0.546677 1.51678
                CHANNELS 3 Zrotation Xrotation Yrotation
                JOINT rRing2
                {
                  OFFSET -2.60934 -0.819778 -0.0198488
                  CHANNELS 3 Zrotation Xrotation Yrotation
                  End Site
                  {
                    OFFSET -2.33842 -0.294052 0.168128
                  }
                }
              }
              JOINT rPinky1
              {
                OFFSET -8.27202 -0.0477905 -0.4584
                CHANNELS 3 Zrotation Xrotation Yrotation
                JOINT rPinky2
                {
                  OFFSET -1.82734 -0.647385 -0.700984
                  CHANNELS 3 Zrotation Xrotation Yrotation
                  End Site
                  {
                    OFFSET -1.69225 -0.51767 -0.607171
                  }
                }
              }
            }
          }
        }
      }
      JOINT lCollar
      {
        OFFSET 2.68224 19.2634 -4.8768
        CHANNELS 3 Zrotation Xrotation Yrotation
        JOINT lShldr
        {
          OFFSET 8.77824 -1.95073 1.46304
          CHANNELS 3 Zrotation Xrotation Yrotation
          JOINT lForeArm
          {
            OFFSET 28.1742 -1.7115 0.48768
            CHANNELS 3 Zrotation Xrotation Yrotation
            JOINT lHand
            {
              OFFSET 22.5879 0.773209 7.07136
              CHANNELS 3 Zrotation Xrotation Yrotation
              JOINT lThumb1
              {
                OFFSET 1.2192 -0.487915 3.41376
                CHANNELS 3 Zrotation Xrotation Yrotation
                JOINT lThumb2
                {
                  OFFSET 3.37035 -0.52449 3.41376
                  CHANNELS 3 Zrotation Xrotation Yrotation
                  End Site
                  {
                    OFFSET 1.78271 -1.18214 1.43049
                  }
                }
              }
              JOINT lIndex1
              {
                OFFSET 7.75947 0.938293 5.60832
                CHANNELS 3 Zrotation Xrotation Yrotation
                JOINT lIndex2
                {
                  OFFSET 2.54057 -0.884171 1.56538
                  CHANNELS 3 Zrotation Xrotation Yrotation
                  End Site
                  {
                    OFFSET 1.62519 -0.234802 1.16502
                  }
                }
              }
              JOINT lMid1
              {
                OFFSET 8.24714 1.18213 3.41376
                CHANNELS 3 Zrotation Xrotation Yrotation
                JOINT lMid2
                {
                  OFFSET 3.10165 -0.590103 1.0647
                  CHANNELS 3 Zrotation Xrotation Yrotation
                  End Site
                  {
                    OFFSET 2.48547 -0.328903 0.83742
                  }
                }
              }
              JOINT lRing1
              {
                OFFSET 8.82822 0.546677 1.51678
                CHANNELS 3 Zrotation Xrotation Yrotation
                JOINT lRing2
                {
                  OFFSET 2.60934 -0.819778 -0.0198488
                  CHANNELS 3 Zrotation Xrotation Yrotation
                  End Site
                  {
                    OFFSET 2.33842 -0.294052 0.168128
                  }
                }
              }
              JOINT lPinky1
              {
                OFFSET 8.27202 -0.0477905 -0.4584
                CHANNELS 3 Zrotation Xrotation Yrotation
                JOINT lPinky2
                {
                  OFFSET 1.82734 -0.647385 -0.700984
                  CHANNELS 3 Zrotation Xrotation Yrotation
                  End Site
                  {
                    OFFSET 1.69225 -0.51767 -0.607171
                  }
                }
              }
            }
          }
        }
      }
    }
  }
  JOINT rButtock
  {
    OFFSET -8.77824 4.35084 1.2192
    CHANNELS 3 Zrotation Xrotation Yrotation
    JOINT rThigh
    {
      OFFSET 0 -1.70687 -2.19456
      CHANNELS 3 Zrotation Xrotation Yrotation
      JOINT rShin
      {
        OFFSET 0 -36.8199 0.73152
        CHANNELS 3 Zrotation Xrotation Yrotation
        JOINT rFoot
        {
          OFFSET 0.73152 -45.1104 -5.12064
          CHANNELS 3 Zrotation Xrotation Yrotation
          End Site
          {
            OFFSET -1.1221 -3.69964 12.103
          }
        }
      }
    }
  }
  JOINT lButtock
  {
    OFFSET 8.77824 4.35084 1.2192
    CHANNELS 3 Zrotation Xrotation Yrotation
    JOINT lThigh
    {
      OFFSET 0 -1.70687 -2.19456
      CHANNELS 3 Zrotation Xrotation Yrotation
      JOINT lShin
      {
        OFFSET 0 -36.8199 0.73152
        CHANNELS 3 Zrotation Xrotation Yrotation
        JOINT lFoot
        {
          OFFSET -0.73152 -45.1104 -5.12064
          CHANNELS 3 Zrotation Xrotation Yrotation
          End Site
          {
            OFFSET 1.1221 -3.69964 12.103
          }
        }
      }
    }
  }
}
MOTION
Frames:	4
Frame Time:	0.03333
-0.005088971179335516 61.9926478883008 0.09849298201802348 -3.2323288917541504 -1.9930013418197632 8.744123458862305 -2.3472301959991455 14.30210018157959 3.7844231128692627 2.6810364723205566 -9.594554901123047 1.1908721923828125 -4.918272018432617 14.48765754699707 -3.6810193061828613 8.889077186584473 -22.099239349365234 -5.331174850463867 -0.0068750204518437386 0.025546029210090637 -0.04008910059928894 0.005779410246759653 0.015981361269950867 -0.047570355236530304 0.023490697145462036 0.03152073919773102 -0.07430556416511536 46.6397590637207 40.05801773071289 17.737524032592773 -25.58517074584961 -26.327392578125 68.63314819335938 -1.5258231163024902 -10.084261894226074 -1.5388071537017822 0.015514075756072998 0.0084476163610816 0.05775567144155502 -0.00438757473602891 0.034592870622873306 -0.04760439693927765 -0.015025405213236809 0.059863802045583725 -0.045729685574769974 7.710884094238281 5.487431049346924 0.3463527262210846 0.06330949813127518 0.005371133331209421 -0.022385193035006523 2.9178946018218994 0.9426488280296326 0.09823837876319885 -0.10197152197360992 -0.01940036378800869 -0.007865076884627342 10.280531883239746 0.7559479475021362 0.026867421343922615 0.03201013058423996 -0.06846440583467484 0.01678304746747017 2.2567436695098877 -0.6936339735984802 -0.23012080788612366 -0.0244766678661108 -0.013993444852530956 -0.02518390491604805 -54.91059112548828 40.391197204589844 -25.50345230102539 24.7903995513916 -23.4901180267334 -65.31997680664062 1.8419673442840576 -14.421273231506348 1.9499880075454712 -0.025840118527412415 -0.06178434193134308 -0.011445784009993076 -0.042909011244773865 0.031077425926923752 -0.03438621759414673 -0.03348972648382187 -0.0716925710439682 -0.017295369878411293 -7.657500743865967 5.505856037139893 -0.39918363094329834 0.023008588701486588 -0.0037211531307548285 0.004959753714501858 -2.8687868118286133 0.996555745601654 -0.09648825228214264 -0.026419928297400475 -0.039015062153339386 0.003668803023174405 -10.232012748718262 0.7390811443328857 -0.015202491544187069 -0.07451499253511429 0.025914687663316727 0.01405757199972868 -2.2302944660186768 -0.72150057554245 0.25300872325897217 0.015509097836911678 0.024441074579954147 -0.01946520060300827 -24.79315185546875 -41.785972595214844 -18.737064361572266 -1.3174171447753906 65.10601806640625 2.4037442207336426 -4.58173131942749 -11.694104194641113 -9.819541931152344 0.039893195033073425 -0.04251975193619728 -0.006995205767452717 30.106027603149414 -42.75526428222656 20.990131378173828 1.3105227947235107 65.98799896240234 -2.4064583778381348 4.915490627288818 -11.548561096191406 13.007896423339844
-0.010450402873531071 62.55482709850621 0.15538344188405798 -3.2171106338500977 -1.931335687637329 8.993610382080078 -2.296405792236328 14.096315383911133 3.6292824745178223 2.7153398990631104 -9.446956634521484 1.0933711528778076 -4.922302722930908 14.479585647583008 -3.6638689041137695 8.825213432312012 -21.969261169433594 -5.285579681396484 -0.0034283241257071495 0.033207543194293976 -0.07891703397035599 0.003909687511622906 0.034081052988767624 -0.04938099905848503 0.09205850958824158 0.04532639682292938 -0.10718775540590286 46.6792106628418 40.16822052001953 17.836307525634766 -25.524127960205078 -26.30750274658203 68.62859344482422 -1.5248671770095825 -10.17007827758789 -1.5815826654434204 0.011488707736134529 0.015233689919114113 0.08769817650318146 -0.019775032997131348 0.03535831719636917 -0.08246958255767822 -0.015495575964450836 0.10986123979091644 -0.05625816434621811 7.694980621337891 5.525117874145508 0.2776239216327667 0.10341016203165054 0.05104513838887215 -0.028469674289226532 2.9006240367889404 0.9215809106826782 0.08469387888908386 -0.15799005329608917 -0.04305243492126465 -0.04269906505942345 10.284749984741211 0.7798338532447815 0.00306873326189816 0.05923639237880707 -0.0642799437046051 0.06604880094528198 2.279404878616333 -0.6824999451637268 -0.2385997623205185 -0.06601139903068542 -0.015649626031517982 -0.039572399109601974 -55.02425003051758 40.56360626220703 -25.364395141601562 24.734046936035156 -23.55063247680664 -65.5086669921875 1.7641186714172363 -14.263776779174805 1.8726786375045776 -0.057109981775283813 -0.09504532068967819 -0.0445755273103714 -0.09946492314338684 0.05966191738843918 -0.06906747817993164 -0.051896512508392334 -0.10950598120689392 -0.015832681208848953 -7.590940475463867 5.5152788162231445 -0.3887661099433899 0.030766431242227554 -0.022805694490671158 0.030294226482510567 -2.860285520553589 0.9844794869422913 -0.09687305241823196 -0.02970653586089611 -0.06292009353637695 0.017543405294418335 -10.199612617492676 0.7602283358573914 -0.024182146415114403 -0.12567535042762756 0.06071442365646362 -0.0011349567212164402 -2.2263071537017822 -0.7083274126052856 0.2967284917831421 0.02057739533483982 0.04016561806201935 -0.023569380864501 -24.899194717407227 -41.86726379394531 -18.931190490722656 -1.325971007347107 65.15109252929688 2.356252908706665 -4.484897136688232 -11.458819389343262 -9.701203346252441 0.010445328429341316 -0.09304042905569077 0.019805938005447388 30.032800674438477 -42.67003631591797 20.91982078552246 1.2018197774887085 65.7323226928711 -2.3256256580352783 4.913718223571777 -11.317477226257324 12.980554580688477
0.023537312127539955 55.05674105031459 0.31628402243104664 -1.4060871601104736 48.42938232421875 5.797573089599609 -6.13847017288208 10.386619567871094 -4.137752532958984 7.527441501617432 -10.715377807617188 -0.4197008013725281 -9.44462776184082 20.215429306030273 -14.893876075744629 15.029903411865234 -26.57200050354004 -27.084735870361328 -0.187966987490654 -0.07632355391979218 -0.22453734278678894 0.0924491211771965 -0.0697874054312706 -0.07513498514890671 0.18597757816314697 -0.13547749817371368 -0.14238514006137848 56.05226516723633 -1.2087479829788208 20.78168296813965 -27.737058639526367 -31.494325637817383 70.59107971191406 -0.8305450677871704 18.307193756103516 2.544123411178589 0.04400229826569557 0.011538378894329071 0.06257598847150803 -0.055099889636039734 -0.07209894806146622 -0.040477000176906586 0.07929952442646027 0.4189726412296295 -0.1162465438246727 7.731502532958984 5.562012195587158 0.39585059881210327 0.2806212604045868 -0.009704467840492725 -0.01640152372419834 3.0275650024414062 0.8838430643081665 -0.05538420006632805 -0.1585174947977066 -0.05953428894281387 -0.08785763382911682 10.299027442932129 0.8928517699241638 -0.004182330332696438 -0.07339242100715637 -0.24492047727108002 0.02375941164791584 2.480191230773926 -0.5853945016860962 -0.423171728849411 -0.15690438449382782 0.034106362611055374 0.07868200540542603 -91.12715148925781 75.46652221679688 15.012328147888184 27.550748825073242 -43.388946533203125 -89.4108657836914 21.683713912963867 -73.46478271484375 28.871559143066406 -0.07462846487760544 -0.2644053101539612 -0.006003475282341242 -0.022257480770349503 0.023814283311367035 0.05507593974471092 -0.08487387001514435 -0.09765039384365082 0.255652517080307 -7.57649564743042 5.541932582855225 -0.2872619926929474 0.06577964127063751 -0.14994265139102936 0.05827891826629639 -2.8090126514434814 0.976677417755127 -0.24497054517269135 -0.022328102961182594 -0.06393887102603912 -0.05902104452252388 -10.192225456237793 0.7159987688064575 -0.07036539167165756 -0.0948491245508194 0.02223498746752739 0.1300889551639557 -2.263911247253418 -0.9322445392608643 0.29587438702583313 -0.04104912653565407 -0.06723193824291229 -0.07035979628562927 -57.557533264160156 -47.78966522216797 -56.346710205078125 -1.0875210762023926 66.19733428955078 1.9368184804916382 1.891825795173645 1.8152083158493042 11.827278137207031 0.05344757065176964 0.004376957658678293 -0.10793161392211914 27.733821868896484 -23.704936981201172 28.124988555908203 1.7274013757705688 77.68698120117188 -4.227126598358154 13.925446510314941 -27.876853942871094 28.288209915161133
-0.0027099842749083404 54.818558693577906 0.32414525000061395 1.7294971942901611 46.17868423461914 4.4867119789123535 -7.455103397369385 9.31543254852295 -3.429717779159546 7.029180526733398 -10.535069465637207 -0.6026134490966797 -9.897647857666016 20.275768280029297 -14.876978874206543 14.918098449707031 -25.850200653076172 -27.24493980407715 -0.14280611276626587 -0.0025371673982590437 -0.003450170159339905 0.030598176643252373 0.0009103370830416679 0.011609596200287342 -0.16369934380054474 0.13421767950057983 -0.08071833103895187 58.036685943603516 -2.38983154296875 22.423120498657227 -28.647891998291016 -33.27857208251953 71.26094055175781 -0.46117493510246277 21.50300407409668 2.740053653717041 -0.12759065628051758 0.3061999976634979 0.28373441100120544 -0.08935074508190155 0.07548969238996506 -0.172295942902565 -0.007095924112945795 -0.007728395983576775 -0.2487228363752365 7.8329758644104 5.5096564292907715 0.1841299831867218 0.14454065263271332 -0.13695882260799408 0.044791169464588165 2.915821075439453 0.9063167572021484 -0.07634882628917694 -0.0923519879579544 -0.0032717431895434856 0.11015626043081284 10.394237518310547 0.6886991858482361 0.1217658594250679 0.15082576870918274 -0.4326857924461365 -0.08087601512670517 2.328002452850342 -0.7518306374549866 -0.11655745655298233 -0.13485799729824066 0.052520282566547394 0.1118227168917656 -87.4738998413086 78.51995086669922 12.10007095336914 27.754764556884766 -42.202571868896484 -87.49860382080078 31.821693420410156 -77.89879608154297 39.420684814453125 -0.0861310064792633 0.023440195247530937 -0.05657529458403587 -0.053584951907396317 0.24973632395267487 -0.2822972536087036 -0.3255930244922638 -0.21259106695652008 0.11839429289102554 -7.528061866760254 5.637155532836914 -0.24718104302883148 0.14007022976875305 -0.1848324090242386 0.12665009498596191 -2.8249237537384033 0.837199330329895 0.12653665244579315 -0.10116376727819443 -0.24287143349647522 0.11911645531654358 -10.345816612243652 0.5194478034973145 -0.038054175674915314 -0.08542606234550476 0.041688356548547745 0.0003658154746517539 -2.2526133060455322 -0.5425024628639221 0.28302818536758423 0.06418036669492722 -0.026922833174467087 -0.07498794049024582 -58.59755325317383 -44.90542984008789 -60.17789077758789 -0.6069746017456055 64.98037719726562 1.5292960405349731 1.3287848234176636 3.3728699684143066 11.515044212341309 0.2994014024734497 -0.33792927861213684 -0.0035634601954370737 30.984983444213867 -22.36454963684082 33.6461067199707 1.3689149618148804 76.75343322753906 -4.410221576690674 13.554285049438477 -27.14057731628418 27.66149139404297
